<?xml version="1.0" encoding="UTF-8" standalone="no"?>
<!-- Created with Inkscape (http://www.inkscape.org/) -->

<svg
   width="1000"
   height="1000"
   viewBox="0 0 264.58333 264.58333"
   version="1.1"
   id="svg1"
   inkscape:version="1.3.2 (091e20e, 2023-11-25, custom)"
   sodipodi:docname="4.svg"
   xmlns:inkscape="http://www.inkscape.org/namespaces/inkscape"
   xmlns:sodipodi="http://sodipodi.sourceforge.net/DTD/sodipodi-0.dtd"
   xmlns="http://www.w3.org/2000/svg"
   xmlns:svg="http://www.w3.org/2000/svg">
  <sodipodi:namedview
     id="namedview1"
     pagecolor="#ffffff"
     bordercolor="#000000"
     borderopacity="0.25"
     inkscape:showpageshadow="2"
     inkscape:pageopacity="0.0"
     inkscape:pagecheckerboard="0"
     inkscape:deskcolor="#d1d1d1"
     inkscape:document-units="mm"
     inkscape:zoom="0.5"
     inkscape:cx="153"
     inkscape:cy="605"
     inkscape:window-width="1920"
     inkscape:window-height="1009"
     inkscape:window-x="-8"
     inkscape:window-y="-8"
     inkscape:window-maximized="1"
     inkscape:current-layer="layer1" />
  <defs
     id="defs1" />
  <g
     inkscape:label="Layer 1"
     inkscape:groupmode="layer"
     id="layer1">
    <path
       id="rect4-5"
       style="stroke-width:0.264583"
       d="M 137.13582 0 L 137.13582 3.4395833 C 143.94833 3.4395833 145.81474 7.250714 145.06763 13.169739 L 140.87047 27.078451 L 124.81719 80.280371 L 77.258333 29.706197 L 77.258333 44.865479 L 121.35435 91.75719 L 95.663411 176.89773 C 92.157508 185.64445 88.113884 194.99792 77.258333 194.99792 L 77.258333 198.4375 L 89.164067 198.4375 L 89.164583 198.4375 L 115.6224 198.4375 L 120.39213 182.63123 L 115.62292 198.4375 L 127.52917 198.4375 L 127.52917 194.99792 C 117.92433 194.99792 118.9992 187.58743 121.64891 178.46611 C 121.64985 178.46285 121.65054 178.45955 121.65149 178.45629 L 123.13047 173.55478 L 141.38517 113.05822 L 187.40665 161.99786 L 187.40665 146.83807 L 144.84801 101.5814 L 168.9902 21.574394 C 172.49665 12.825994 176.55261 3.4395833 187.40665 3.4395833 L 187.40665 0 L 175.5004 0 L 175.46578 0.11213786 L 175.49988 0 L 149.04207 0 L 149.04155 0 L 137.13582 0 z " />
  </g>
</svg>
