<?xml version="1.0" encoding="UTF-8" standalone="no"?>
<!-- Created with Inkscape (http://www.inkscape.org/) -->

<svg
   width="1000"
   height="1000"
   viewBox="0 0 264.58333 264.58333"
   version="1.1"
   id="svg1"
   inkscape:version="1.3.2 (091e20e, 2023-11-25, custom)"
   sodipodi:docname="6.svg"
   xmlns:inkscape="http://www.inkscape.org/namespaces/inkscape"
   xmlns:sodipodi="http://sodipodi.sourceforge.net/DTD/sodipodi-0.dtd"
   xmlns="http://www.w3.org/2000/svg"
   xmlns:svg="http://www.w3.org/2000/svg">
  <sodipodi:namedview
     id="namedview1"
     pagecolor="#ffffff"
     bordercolor="#000000"
     borderopacity="0.25"
     inkscape:showpageshadow="2"
     inkscape:pageopacity="0.0"
     inkscape:pagecheckerboard="0"
     inkscape:deskcolor="#d1d1d1"
     inkscape:document-units="mm"
     inkscape:zoom="0.5"
     inkscape:cx="152"
     inkscape:cy="605"
     inkscape:window-width="1920"
     inkscape:window-height="1009"
     inkscape:window-x="-8"
     inkscape:window-y="-8"
     inkscape:window-maximized="1"
     inkscape:current-layer="layer1" />
  <defs
     id="defs1" />
  <g
     inkscape:label="Layer 1"
     inkscape:groupmode="layer"
     id="layer1">
    <g
       id="g233"
       transform="matrix(0.26458333,0,0,0.26458333,-3541.7992,-31.750011)">
      <path
         id="rect141"
         style="stroke-width:0.52676"
         d="m 14090.328,455.00003 v 45 h -408 v -45 z"
         sodipodi:nodetypes="ccccc" />
      <path
         style="fill:#000000;stroke-width:0.845154"
         d="m 14090.328,500.00003 v 45 h -13 c 0,-42.657 -27.362,-45 -61,-45 z"
         id="path144"
         sodipodi:nodetypes="ccccc" />
      <path
         style="fill:#000000;stroke-width:0.845154"
         d="m 13682.328,500.00003 v 45 h 13 c 0,-42.657 27.362,-45 61,-45 z"
         id="path145"
         sodipodi:nodetypes="ccccc" />
    </g>
    <g
       id="g234"
       transform="matrix(0.26458333,0,0,0.26458333,-3553.2327,-1.0583333e-5)">
      <path
         id="path146"
         style="stroke-width:1.00897"
         d="m 13974.541,729.01043 -90,20.98958 V 250.00003 h 90 z"
         sodipodi:nodetypes="ccccc" />
      <path
         style="fill:#000000;stroke-width:0.845154"
         d="m 13974.541,729.01043 45,-10.96016 v -13 c -42.657,0 -45,-16.40166 -45,-50.03984 z"
         id="path147"
         sodipodi:nodetypes="ccccc" />
      <path
         id="path148"
         style="stroke-width:1.00897"
         d="m 13884.541,20.98962 90,-20.98958 v 499.99998 h -90 z"
         sodipodi:nodetypes="ccccc" />
      <path
         style="fill:#000000;stroke-width:0.845154"
         d="m 13884.541,20.98962 -45,10.96016 v 13 c 42.657,0 45,16.40166 45,50.03984 z"
         id="path149"
         sodipodi:nodetypes="ccccc" />
    </g>
  </g>
</svg>
