<?xml version="1.0" encoding="UTF-8" standalone="no"?>
<!-- Created with Inkscape (http://www.inkscape.org/) -->

<svg
   width="1000"
   height="1000"
   viewBox="0 0 264.58333 264.58333"
   version="1.1"
   id="svg1"
   inkscape:version="1.3.2 (091e20e, 2023-11-25, custom)"
   sodipodi:docname="8.svg"
   xmlns:inkscape="http://www.inkscape.org/namespaces/inkscape"
   xmlns:sodipodi="http://sodipodi.sourceforge.net/DTD/sodipodi-0.dtd"
   xmlns="http://www.w3.org/2000/svg"
   xmlns:svg="http://www.w3.org/2000/svg">
  <sodipodi:namedview
     id="namedview1"
     pagecolor="#ffffff"
     bordercolor="#000000"
     borderopacity="0.25"
     inkscape:showpageshadow="2"
     inkscape:pageopacity="0.0"
     inkscape:pagecheckerboard="0"
     inkscape:deskcolor="#d1d1d1"
     inkscape:document-units="mm"
     inkscape:zoom="0.5"
     inkscape:cx="152"
     inkscape:cy="605"
     inkscape:window-width="1920"
     inkscape:window-height="1009"
     inkscape:window-x="-8"
     inkscape:window-y="-8"
     inkscape:window-maximized="1"
     inkscape:current-layer="layer1" />
  <defs
     id="defs1" />
  <g
     inkscape:label="Layer 1"
     inkscape:groupmode="layer"
     id="layer1">
    <path
       id="path167"
       style="stroke-width:0.151485"
       d="M 217.22291,88.635408 V 100.54166 H 47.36042 V 88.635408 Z"
       sodipodi:nodetypes="ccccc" />
    <path
       style="fill:#000000;stroke-width:0.223614"
       d="m 217.22291,100.54166 v 11.90625 h -3.43958 c 0,-11.28633 -7.23953,-11.90625 -16.13958,-11.90625 z"
       id="path168"
       sodipodi:nodetypes="ccccc" />
    <path
       style="fill:#000000;stroke-width:0.223614"
       d="m 47.36042,100.54166 v 11.90625 h 3.439583 c 0,-11.28633 7.239529,-11.90625 16.139583,-11.90625 z"
       id="path169"
       sodipodi:nodetypes="ccccc" />
    <path
       id="path1"
       style="stroke-width:0.266957"
       d="m 191.49324,192.884 -23.8125,5.55349 V 66.14583 h 23.8125 z"
       sodipodi:nodetypes="ccccc" />
    <path
       style="fill:#000000;stroke-width:0.223614"
       d="m 191.49324,192.884 11.90625,-2.89988 v -3.43958 c -11.28633,0 -11.90625,-4.33961 -11.90625,-13.23971 z"
       id="path6"
       sodipodi:nodetypes="ccccc" />
    <path
       id="path63"
       style="stroke-width:0.266957"
       d="M 167.68074,5.55349 191.49324,0 v 132.29166 h -23.8125 z"
       sodipodi:nodetypes="ccccc" />
    <path
       style="fill:#000000;stroke-width:0.223614"
       d="M 167.68074,5.55349 155.7745,8.45337 v 3.43958 c 11.28633,0 11.90624,4.33961 11.90624,13.23971 z"
       id="path64"
       sodipodi:nodetypes="ccccc" />
    <path
       id="path134"
       style="stroke-width:0.266957"
       d="m 144.55246,163.77983 -23.8125,5.55349 V 37.04166 h 23.8125 z"
       sodipodi:nodetypes="ccccc" />
    <path
       style="fill:#000000;stroke-width:0.223614"
       d="m 144.55246,163.77983 11.90625,-2.89987 v -3.43959 c -11.28633,0 -11.90625,-4.3396 -11.90625,-13.23971 z"
       id="path136"
       sodipodi:nodetypes="ccccc" />
    <path
       id="path137"
       style="stroke-width:0.266957"
       d="m 120.73996,27.25207 23.8125,-5.55349 v 132.29166 h -23.8125 z"
       sodipodi:nodetypes="ccccc" />
    <path
       style="fill:#000000;stroke-width:0.223614"
       d="m 120.73996,27.25207 -11.90625,2.89988 v 3.43958 c 11.28633,0 11.90625,4.33961 11.90625,13.23971 z"
       id="path142"
       sodipodi:nodetypes="ccccc" />
    <path
       id="path143"
       style="stroke-width:0.266957"
       d="m 97.611674,163.77983 -23.8125,5.55349 V 37.04166 h 23.8125 z"
       sodipodi:nodetypes="ccccc" />
    <path
       style="fill:#000000;stroke-width:0.223614"
       d="m 97.611674,163.77983 11.906246,-2.89987 v -3.43959 c -11.286328,0 -11.906246,-4.3396 -11.906246,-13.23971 z"
       id="path150"
       sodipodi:nodetypes="ccccc" />
    <path
       id="path151"
       style="stroke-width:0.266957"
       d="m 73.799174,27.25207 23.8125,-5.55349 v 132.29166 h -23.8125 z"
       sodipodi:nodetypes="ccccc" />
    <path
       style="fill:#000000;stroke-width:0.223614"
       d="m 73.799174,27.25207 -11.90625,2.89988 v 3.43958 c 11.286331,0 11.90625,4.33961 11.90625,13.23971 z"
       id="path152"
       sodipodi:nodetypes="ccccc" />
  </g>
</svg>
