<?xml version="1.0" encoding="UTF-8" standalone="no"?>
<!-- Created with Inkscape (http://www.inkscape.org/) -->

<svg
   height="1000"
   width="1000"
   sodipodi:docname="for_edit.svg"
   version="1.1"
   id="svg1"
   inkscape:version="1.3.2 (091e20e, 2023-11-25, custom)"
   xmlns:inkscape="http://www.inkscape.org/namespaces/inkscape"
   xmlns:sodipodi="http://sodipodi.sourceforge.net/DTD/sodipodi-0.dtd"
   xmlns="http://www.w3.org/2000/svg"
   xmlns:svg="http://www.w3.org/2000/svg"
   xmlns:rdf="http://www.w3.org/1999/02/22-rdf-syntax-ns#"
   xmlns:cc="http://creativecommons.org/ns#"
   xmlns:dc="http://purl.org/dc/elements/1.1/">
  <sodipodi:namedview
     id="base"
     pagecolor="#ffffff"
     bordercolor="#000000"
     borderopacity="0.3"
     inkscape:pageopacity="0.0"
     inkscape:pageshadow="2"
     inkscape:zoom="0.044194174"
     inkscape:cx="-11234.513"
     inkscape:cy="2319.3102"
     inkscape:document-units="px"
     inkscape:current-layer="layer1"
     showgrid="false"
     showguides="true"
     inkscape:window-width="1920"
     inkscape:window-height="1009"
     inkscape:window-x="-8"
     inkscape:window-y="-8"
     inkscape:window-maximized="1"
     showborder="true"
     inkscape:showpageshadow="false"
     inkscape:pagecheckerboard="0"
     inkscape:deskcolor="#d1d1d1">
    <sodipodi:guide
       id="guide_baseline"
       inkscape:label="baseline"
       position="90.509668,200"
       orientation="0,1"
       inkscape:locked="false"
       inkscape:color="rgb(0,134,229)" />
    <sodipodi:guide
       id="guide_ascender"
       inkscape:label="ascender"
       position="6505.3824,998.67644"
       orientation="0,1"
       inkscape:locked="false"
       inkscape:color="rgb(0,134,229)" />
    <sodipodi:guide
       id="guide_xheight"
       inkscape:label="xheight"
       position="0,800"
       orientation="0,1"
       inkscape:locked="false"
       inkscape:color="rgb(0,134,229)" />
    <sodipodi:guide
       position="500,410"
       orientation="-1,0"
       id="guide1"
       inkscape:locked="false"
       inkscape:label="centre"
       inkscape:color="rgb(0,134,229)" />
    <sodipodi:guide
       position="315,478"
       orientation="-1,0"
       id="guide2"
       inkscape:locked="false"
       inkscape:label=""
       inkscape:color="rgb(0,134,229)" />
    <sodipodi:guide
       position="0,875"
       orientation="-1,0"
       id="guide3"
       inkscape:label=""
       inkscape:locked="false"
       inkscape:color="rgb(0,134,229)" />
    <sodipodi:guide
       position="685,663.67578"
       orientation="-1,0"
       id="guide4"
       inkscape:locked="false"
       inkscape:label=""
       inkscape:color="rgb(0,134,229)" />
    <sodipodi:guide
       position="1000,998.67644"
       orientation="1,0"
       id="guide20"
       inkscape:locked="false" />
    <sodipodi:guide
       position="3812.7148,250"
       orientation="1,0"
       id="guide70"
       inkscape:locked="false" />
    <sodipodi:guide
       position="4026.4475,736.88985"
       orientation="1,0"
       id="guide73"
       inkscape:locked="false" />
    <sodipodi:guide
       position="5883.8669,420.89353"
       orientation="1,0"
       id="guide92"
       inkscape:locked="false" />
    <sodipodi:guide
       position="6599.1533,500"
       orientation="1,0"
       id="guide108"
       inkscape:locked="false" />
    <sodipodi:guide
       position="7312.0732,506"
       orientation="1,0"
       id="guide109"
       inkscape:locked="false" />
    <sodipodi:guide
       position="7102.4492,518.07422"
       orientation="1,0"
       id="guide50"
       inkscape:locked="false" />
    <sodipodi:guide
       position="12690.698,13"
       orientation="1,0"
       id="guide227"
       inkscape:locked="false" />
    <sodipodi:guide
       position="13107.006,999.99996"
       orientation="1,0"
       id="guide228"
       inkscape:locked="false" />
    <sodipodi:guide
       position="15942.44,999.99996"
       orientation="1,0"
       id="guide233"
       inkscape:locked="false" />
    <sodipodi:guide
       position="0,410"
       orientation="0,-1"
       id="guide204"
       inkscape:locked="false" />
    <sodipodi:guide
       position="1185,668.28516"
       orientation="1,0"
       id="guide205"
       inkscape:locked="false" />
    <sodipodi:guide
       position="1500.9331,196.17175"
       orientation="1,0"
       id="guide206"
       inkscape:locked="false" />
    <sodipodi:guide
       position="0,0"
       orientation="0,-1"
       id="guide207"
       inkscape:locked="false" />
    <sodipodi:guide
       position="-599.13281,609.0625"
       orientation="0,-1"
       id="guide236"
       inkscape:locked="false" />
  </sodipodi:namedview>
  <defs
     id="defs4" />
  <metadata
     id="metadata7">
    <rdf:RDF>
      <cc:Work
         rdf:about="">
        <dc:format>image/svg+xml</dc:format>
        <dc:type
           rdf:resource="http://purl.org/dc/dcmitype/StillImage" />
      </cc:Work>
    </rdf:RDF>
  </metadata>
  <g
     id="layer1"
     inkscape:groupmode="layer"
     inkscape:label="Layer 1">
    <text
       xml:space="preserve"
       style="font-style:normal;font-variant:normal;font-weight:normal;font-stretch:normal;font-family:Cirlxarli_liparxe;-inkscape-font-specification:Cirlxarli_liparxe;fill:#e6e6e6"
       x="5805.3467"
       y="250"
       id="text85"><tspan
         sodipodi:role="line"
         id="tspan85" /></text>
    <text
       xml:space="preserve"
       style="font-style:normal;font-variant:normal;font-weight:normal;font-stretch:normal;font-size:992px;font-family:Cirlxarli_liparxe;-inkscape-font-specification:Cirlxarli_liparxe;fill:#000000;stroke-width:11.625"
       x="2026.8807"
       y="-3.0013325e-11"
       id="text104"><tspan
         sodipodi:role="line"
         id="tspan104"
         x="2026.8807"
         y="-3.0013325e-11"
         style="stroke-width:11.625" /></text>
    <text
       xml:space="preserve"
       style="font-style:normal;font-variant:normal;font-weight:normal;font-stretch:normal;font-size:533.333px;font-family:linzklar_rounded;-inkscape-font-specification:linzklar_rounded;fill:#000000;stroke-width:6.25"
       x="5231.7168"
       y="0"
       id="text105"><tspan
         sodipodi:role="line"
         id="tspan105"
         x="5231.7168"
         y="0"
         style="stroke-width:6.25" /></text>
    <text
       xml:space="preserve"
       style="font-style:normal;font-variant:normal;font-weight:normal;font-stretch:normal;font-size:192px;font-family:Cirlxarli_liparxe;-inkscape-font-specification:Cirlxarli_liparxe;fill:#000000"
       x="7678.9009"
       y="-576.99915"
       id="text124"><tspan
         sodipodi:role="line"
         id="tspan124"
         x="7678.9009"
         y="-576.99915" /></text>
    <text
       xml:space="preserve"
       style="font-style:normal;font-variant:normal;font-weight:normal;font-stretch:normal;font-size:192px;font-family:linzklar_rounded;-inkscape-font-specification:linzklar_rounded;fill:#000000"
       x="8770.5742"
       y="-328.09756"
       id="text136"><tspan
         sodipodi:role="line"
         id="tspan136"
         x="8770.5742"
         y="-328.09756" /></text>
    <text
       xml:space="preserve"
       style="font-style:normal;font-variant:normal;font-weight:normal;font-stretch:normal;font-size:192px;font-family:linzklar_rounded;-inkscape-font-specification:linzklar_rounded;fill:#ff0000"
       x="7987.623"
       y="-676"
       id="text140"><tspan
         sodipodi:role="line"
         id="tspan140"
         x="7987.623"
         y="-676" /></text>
    <text
       xml:space="preserve"
       style="font-style:normal;font-variant:normal;font-weight:normal;font-stretch:normal;font-size:192px;font-family:Cirlxarli_liparxe;-inkscape-font-specification:Cirlxarli_liparxe;fill:#ff0000"
       x="-2390.021"
       y="-367.69553"
       id="text214"><tspan
         sodipodi:role="line"
         id="tspan214"
         x="-2390.021"
         y="-367.69553" /></text>
    <text
       xml:space="preserve"
       style="font-style:normal;font-variant:normal;font-weight:normal;font-stretch:normal;font-size:192px;font-family:linzklar_rounded;-inkscape-font-specification:linzklar_rounded;fill:#000000"
       x="-1985.5558"
       y="-627.91083"
       id="text227"><tspan
         sodipodi:role="line"
         id="tspan227"
         x="-1985.5558"
         y="-627.91083" /></text>
    <path
       id="path225"
       style="opacity:1;fill:#000000;fill-opacity:1;stroke:none;stroke-width:11.0875"
       d="m -15557.906,201.14874 c -119.719,0 -216.099,100.79626 -216.099,226 v 148 c 0,125.20374 96.38,226 216.099,226 103.291,0 189.149,-75.05603 210.783,-176.05859 h -135.787 c -11.749,26.17132 -37.944,44.34375 -68.588,44.34375 h -12.816 c -41.674,0 -75.223,-33.54902 -75.223,-75.22266 v -186.125 c 0,-41.67364 33.549,-75.22266 75.223,-75.22266 h 12.816 c 29.908,0 55.555,17.32511 67.696,42.48633 h 136.271 c -22.285,-100.06308 -107.718,-174.20117 -210.375,-174.20117 z" />
    <path
       id="path170"
       style="opacity:1;stroke-width:12.1095"
       d="m -20090.825,201.14808 h -150 l -302,600.00066 h 150 z"
       sodipodi:nodetypes="ccccc" />
    <path
       id="path170-5"
       style="stroke-width:12.1095"
       d="m -8255.9604,332.81669 h -170 l -172.5025,336.66408 h 169.9999 z"
       sodipodi:nodetypes="ccccc" />
    <path
       id="path174"
       style="opacity:1;stroke-width:12.1095"
       d="m -20542.825,201.14808 h 150 l 302,600.00066 h -150 z"
       sodipodi:nodetypes="ccccc" />
    <path
       id="path170-8"
       style="stroke-width:12.1095"
       d="m -4202.2442,2.472299 h -150 l -302,798.676791 h 150 z"
       sodipodi:nodetypes="ccccc" />
    <path
       id="path174-6"
       style="stroke-width:13.5748"
       d="m -4623.2444,117.3954 v 188.49602 l 390.0004,379.50533 V 496.90073 Z"
       sodipodi:nodetypes="ccccc" />
    <path
       id="rect174"
       style="opacity:1;fill:#000000;fill-opacity:1;stroke:none;stroke-width:10.6251"
       d="m -20046.304,201.14874 v 600 h 131.715 18.285 l 110.285,-278.31445 v 278.31445 h 131.715 v -600 h -150 l -110.285,278.31445 V 201.14874 Z"
       sodipodi:nodetypes="cccccccccccc" />
    <path
       id="rect175"
       style="opacity:1;fill:#000000;fill-opacity:1;stroke:none;stroke-width:11.0875"
       d="m -19382.612,201.14874 c -119.72,0 -216.1,100.79613 -216.1,226 v 148 c 0,125.20387 96.38,226 216.1,226 119.719,0 216.099,-100.79613 216.099,-226 v -148 c 0,-125.20387 -96.38,-226 -216.099,-226 z m -6.409,131.71484 h 12.817 c 41.674,0 75.223,33.54898 75.223,75.22266 v 186.125 c 0,41.67368 -33.549,75.22266 -75.223,75.22266 h -12.817 c -41.673,0 -75.222,-33.54898 -75.222,-75.22266 v -186.125 c 0,-41.67368 33.549,-75.22266 75.222,-75.22266 z" />
    <path
       id="rect177"
       style="opacity:1;stroke-width:11.3386"
       d="m -18626.463,201.14874 h 131.715 v 600 h -131.715 z" />
    <path
       id="rect178"
       style="opacity:1;stroke-width:8.41391"
       d="m -19448.471,2.4722991 h 131.715 V 332.8636 h -131.715 z" />
    <path
       id="path178"
       style="opacity:1;fill:#000000;fill-opacity:1;stroke:none;stroke-width:11.0875"
       d="m -18894.821,201.14874 c -119.72,0 -216.1,100.79613 -216.1,226 v 148 c 0,125.20387 96.38,226 216.1,226 119.719,0 216.099,-100.79613 216.099,-226 v -148 c 0,-125.20387 -96.38,-226 -216.099,-226 z m -6.408,131.71484 h 12.816 c 41.674,0 75.223,33.54898 75.223,75.22266 v 186.125 c 0,41.67368 -33.549,75.22266 -75.223,75.22266 h -12.816 c -41.674,0 -75.223,-33.54898 -75.223,-75.22266 v -186.125 c 0,-41.67368 33.549,-75.22266 75.223,-75.22266 z" />
    <path
       id="path190"
       style="opacity:1;fill:#000000;fill-opacity:1;stroke:none;stroke-width:11.0875"
       d="m -18250.055,201.14874 c -119.72,0 -216.1,100.79613 -216.1,226 v 148 c 0,125.20387 96.38,226 216.1,226 119.719,0 216.099,-100.79613 216.099,-226 v -148 c 0,-125.20387 -96.38,-226 -216.099,-226 z m -6.408,131.71484 h 12.816 c 41.674,0 75.223,33.54898 75.223,75.22266 v 186.125 c 0,41.67368 -33.549,75.22266 -75.223,75.22266 h -12.816 c -41.674,0 -75.223,-33.54898 -75.223,-75.22266 v -186.125 c 0,-41.67368 33.549,-75.22266 75.223,-75.22266 z" />
    <path
       id="rect190"
       style="opacity:1;stroke-width:6.29607"
       transform="matrix(0,-1,-1,0,0,0)"
       d="m -567.00616,18441.463 h 131.71484 v 185 h -131.71484 z" />
    <path
       id="rect199"
       style="opacity:1;fill:#000000;fill-opacity:1;stroke:none;stroke-width:11.3386"
       d="m -21537.945,201.14874 v 600 h 223 v 0 c 104.873,-15.68315 185,-111.84972 185,-226 v -148 c 0,-114.15028 -80.127,-210.31685 -185,-226 v 0 z m 131.714,135.91602 h 91.286 c 29.453,10.18414 50.531,38.01845 50.531,71.02148 v 186.125 c 0,33.00303 -21.078,60.83734 -50.531,71.02148 h -91.286 z"
       sodipodi:nodetypes="ccccsscccccssccc" />
    <path
       id="path200"
       style="opacity:1;fill:#000000;fill-opacity:1;stroke:none;stroke-width:11.0875"
       d="m -18250.055,201.14874 c -119.72,0 -216.1,100.79613 -216.1,226 v 148 c 0,125.20387 96.38,226 216.1,226 119.719,0 216.099,-100.79613 216.099,-226 v -148 c 0,-125.20387 -96.38,-226 -216.099,-226 z m -6.408,131.71484 h 12.816 c 41.674,0 75.223,33.54898 75.223,75.22266 v 186.125 c 0,41.67368 -33.549,75.22266 -75.223,75.22266 h -12.816 c -41.674,0 -75.223,-33.54898 -75.223,-75.22266 v -186.125 c 0,-41.67368 33.549,-75.22266 75.223,-75.22266 z" />
    <path
       id="path203"
       style="opacity:1;fill:#000000;fill-opacity:1;stroke:none;stroke-width:11.3386"
       d="m -21037.945,381.14874 v 420 h 223 v 0 c 104.873,-15.68315 185,-91.84972 185,-210 0,-118.15028 -80.127,-193.40873 -185,-209.09188 v 0 z m 131.714,135.91602 h 91.286 c 29.453,10.18414 50.531,38.01845 50.531,74.08398 0,36.06553 -21.078,63.89984 -50.531,74.08398 h -91.286 z"
       sodipodi:nodetypes="cccccccccccccc" />
    <path
       id="rect203"
       style="opacity:1;stroke-width:11.3386"
       d="m -21037.947,201.14874 h 131.715 v 600 h -131.715 z" />
    <path
       id="rect204"
       style="opacity:1;stroke-width:9.35005"
       transform="rotate(-90)"
       d="m -332.86359,-21037.947 h 131.71485 v 408 h -131.71485 z" />
    <path
       id="path203-4"
       style="fill:#000000;fill-opacity:1;stroke:none;stroke-width:11.3386"
       d="M -754,275 V 410.91602 H -522.28516 -431 c 29.45294,10.18412 50.53125,38.01853 50.53125,74.08398 H -246 c 0,-118.15004 -80.1272,-193.40867 -185,-209.0918 z"
       sodipodi:nodetypes="cccccccc" />
    <path
       id="rect203-7"
       style="stroke-width:13.0819"
       d="M -562.71484,1.32356 H -431 v 798.67645 h -131.71484 z" />
    <path
       id="rect204-6"
       style="stroke-width:9.17359"
       d="M -754,197.85742 V 66.14258 h 508 v 131.71484 z"
       sodipodi:nodetypes="ccccc" />
    <path
       id="path206"
       style="opacity:1;fill:#000000;fill-opacity:1;stroke:none;stroke-width:11.0875"
       d="m -17825.196,594.21124 v -27.20508 h -134.469 c -7.716,197.44894 100.991,234.14258 203.763,234.14258 43.38,0 69.968,-40.09079 69.968,-40.09079 0,-43.53676 105.009,-101.11057 113.798,-134.96193 3.741,-14.40438 5.398,-31.77595 4.67,-55.86275 0.69,-6.68047 -10.295,-1.6874 -14.746,-3.22711 l -103.722,51.44157 c 0,35.85082 -41.853,50.98617 -69.968,50.98617 -36.7,0 -70.529,-33.84035 -69.294,-75.22266 z"
       sodipodi:nodetypes="cccscsccccc" />
    <path
       id="rect206"
       style="opacity:1;stroke-width:8.94607"
       d="m -17959.666,201.14874 h 134.469 v 365.85742 h -134.469 z" />
    <path
       id="path207"
       style="opacity:1;stroke-width:11.3785"
       d="m -17685.934,199.29132 h 134.468 v 601.85742 h -134.468 z"
       sodipodi:nodetypes="ccccc" />
    <path
       id="path208"
       style="opacity:1;fill:#000000;fill-opacity:1;stroke:none;stroke-width:11.0875"
       d="m -17203.833,406.22883 v 27.2051 h 134.469 c 0,-198.8646 -100.991,-234.1426 -203.763,-234.1426 -43.38,0 -69.967,40.0908 -69.967,40.0908 0,43.5368 -105.009,101.1106 -113.799,134.9619 -3.74,14.4044 -5.398,31.776 -4.67,55.8628 -0.689,6.6805 10.295,1.6874 14.746,3.2271 l 103.723,-51.4416 c 0,-35.8508 41.852,-50.9861 69.967,-50.9861 36.7,0 70.529,33.8403 69.294,75.2226 z"
       sodipodi:nodetypes="cccscsccccc" />
    <path
       id="rect208"
       style="opacity:1;stroke-width:8.94607"
       transform="scale(-1)"
       d="m 17069.363,-799.29132 h 134.469 v 365.85742 h -134.469 z" />
    <path
       id="path209"
       style="opacity:1;stroke-width:11.3785"
       d="m -17343.094,801.14873 h -134.469 v -601.8574 h 134.469 z"
       sodipodi:nodetypes="ccccc" />
    <path
       id="path210"
       style="opacity:1;fill:#000000;fill-opacity:1;stroke:none;stroke-width:11.0875"
       d="m -16860.216,594.21124 v -27.20508 h -134.469 c -7.716,197.44894 100.991,234.14258 203.763,234.14258 43.38,0 69.968,-40.09079 69.968,-40.09079 0,-43.53676 105.008,-101.11057 113.798,-134.96193 3.74,-14.40438 5.398,-31.77595 4.67,-55.86275 0.69,-6.68047 -10.295,-1.6874 -14.746,-3.22711 l -103.722,51.44157 c 0,35.85082 -41.853,50.98617 -69.968,50.98617 -36.7,0 -70.529,-33.84035 -69.294,-75.22266 z"
       sodipodi:nodetypes="cccscsccccc" />
    <path
       id="rect217"
       style="opacity:1;stroke-width:8.94607"
       d="m -16994.686,201.14874 h 134.469 v 365.85742 h -134.469 z" />
    <path
       id="path221"
       style="opacity:1;stroke-width:13.1337"
       d="m -16720.954,199.29132 h 134.468 v 801.85738 h -134.468 z"
       sodipodi:nodetypes="ccccc" />
    <path
       id="path221-8"
       style="stroke-width:13.1337"
       d="m -6304.5478,2.472299 h 134.4687 V 804.3297 h -134.4687 z"
       sodipodi:nodetypes="ccccc" />
    <path
       id="path222"
       style="opacity:1;fill:#000000;fill-opacity:1;stroke:none;stroke-width:11.0875"
       d="m -16103.608,594.21124 v -27.20508 h -134.468 c -7.717,197.44894 100.991,234.14258 203.763,234.14258 43.38,0 69.967,-40.09079 69.967,-40.09079 0,-43.53676 105.009,-101.11057 113.799,-134.96193 3.74,-14.40438 5.397,-31.77595 4.67,-55.86275 0.689,-6.68047 -10.295,-1.6874 -14.747,-3.22711 l -103.722,51.44157 c 0,35.85082 -41.853,50.98617 -69.967,50.98617 -36.7,0 -70.53,-33.84035 -69.295,-75.22266 z"
       sodipodi:nodetypes="cccscsccccc" />
    <path
       id="rect222"
       style="opacity:1;stroke-width:9.55212"
       d="m -16238.077,201.14874 h 134.469 v 417.10657 h -134.469 z" />
    <path
       id="path223"
       style="opacity:1;stroke-width:11.3785"
       d="m -15964.346,199.29132 h 134.469 v 601.85742 h -134.469 z"
       sodipodi:nodetypes="ccccc" />
    <path
       id="path224"
       style="opacity:1;fill:#000000;fill-opacity:1;stroke:none;stroke-width:11.0875"
       d="m -16377.726,594.21124 v -27.20508 h -134.469 c -7.716,197.44894 100.991,234.14258 203.763,234.14258 137.59,0 179.855,-159.99208 183.766,-175.05272 3.74,-14.40438 5.397,-31.77595 4.67,-55.86275 0.689,-6.68047 -10.295,-1.6874 -14.746,-3.22711 l -103.723,51.44157 c 0,35.85082 -41.852,50.98617 -69.967,50.98617 -36.7,0 -70.529,-33.84035 -69.294,-75.22266 z"
       sodipodi:nodetypes="cccssccccc" />
    <path
       id="rect224"
       style="opacity:1;stroke-width:8.94607"
       d="m -16512.195,201.14874 h 134.468 v 365.85742 h -134.468 z" />
    <path
       id="path226"
       style="opacity:1;fill:#000000;fill-opacity:1;stroke:none;stroke-width:11.0875"
       d="m -15113.271,801.14874 c 119.72,0 216.1,-100.79626 216.1,-226 v -74 -74 c 0,-125.20374 -96.38,-226 -216.1,-226 -103.291,0 -189.148,75.05603 -210.783,176.05859 h 135.787 c 11.75,-26.17132 37.945,-44.34375 68.588,-44.34375 h 12.817 c 41.673,0 75.222,33.54902 75.222,75.22266 v 186.125 c 0,41.67364 -33.549,75.22266 -75.222,75.22266 h -12.817 c -29.908,0 -55.554,-17.32511 -67.695,-42.48633 h -136.272 c 22.285,100.06308 107.719,174.20117 210.375,174.20117 z"
       sodipodi:nodetypes="sscssccssssssccs" />
    <path
       id="path227"
       style="opacity:1;stroke-width:7.18168"
       d="m -14969.249,447.36114 v 107.5752 h -299.698 v -107.5752 z"
       sodipodi:nodetypes="ccccc" />
    <path
       id="path228"
       style="opacity:1;fill:#000000;fill-opacity:1;stroke:none;stroke-width:11.0875"
       d="m -14643.223,201.14874 c 119.72,0 216.1,100.79626 216.1,226 v 148 c 0,125.20374 -96.38,226 -216.1,226 -103.291,0 -189.148,-75.05603 -210.783,-176.05859 h 135.787 c 11.75,26.17132 37.945,44.34375 68.588,44.34375 h 12.817 c 41.673,0 75.222,-33.54902 75.222,-75.22266 v -186.125 c 0,-41.67364 -33.549,-75.22266 -75.222,-75.22266 h -12.817 c -29.908,0 -55.554,17.32511 -67.695,42.48633 h -136.272 c 22.285,-100.06308 107.719,-174.20117 210.375,-174.20117 z" />
    <path
       id="path229"
       style="opacity:1;fill:#000000;fill-opacity:1;stroke:none;stroke-width:11.0875"
       d="m -14135.253,201.14874 c -119.719,0 -216.099,100.79626 -216.099,226 v 148 c 0,125.20374 96.38,226 216.099,226 114.569,0 207.699,-92.32832 215.506,-210 h -133.875 v 3.0625 c 0,41.67364 -33.549,75.22266 -75.222,75.22266 h -12.817 c -41.673,0 -75.222,-33.54902 -75.222,-75.22266 v -186.125 c 0,-41.67364 33.549,-75.22266 75.222,-75.22266 h 12.817 c 41.673,0 75.222,33.54902 75.222,75.22266 v 146.8501 h 134.469 v -127.7876 c 0,-125.20374 -96.38,-226 -216.1,-226 z"
       sodipodi:nodetypes="ssssccssssssssccss" />
    <path
       id="path230"
       style="opacity:1;stroke-width:7.93586"
       d="m -13927.638,447.36114 v 107.5752 h -365.949 v -107.5752 z"
       sodipodi:nodetypes="ccccc" />
    <path
       id="path235"
       style="opacity:1;fill:#000000;fill-opacity:1;stroke:none;stroke-width:11.0875"
       d="m -13677.376,201.14874 c -103.291,0 -189.149,75.05633 -210.784,176.05859 h 135.788 c 11.749,-26.17123 37.944,-44.34375 68.587,-44.34375 h 12.817 c 41.673,0 75.223,17.54914 75.223,59.22266 0,0 5.235,55.27539 -68.069,55.27539 h -89.238 v 53.78711 53.78711 h 89.238 c 73.304,0 68.069,55.27539 68.069,55.27539 0,41.67352 -33.55,59.22266 -75.223,59.22266 h -12.817 c -30.643,0 -56.838,-18.17252 -68.587,-44.34375 h -135.788 c 21.635,101.00226 107.493,176.05859 210.784,176.05859 119.719,0 216.099,-50.96646 216.099,-190.9375 0,-65.75587 -62,-109.0625 -62,-109.0625 0,0 62,-43.30663 62,-109.0625 0,-139.97104 -96.38,-190.9375 -216.099,-190.9375 z" />
    <path
       id="path236"
       style="opacity:1;fill:#000000;fill-opacity:1;stroke:none;stroke-width:11.0875"
       d="m -13099.604,406.22883 v 27.2051 h 134.469 c 7.716,-197.4489 -100.991,-234.1426 -203.763,-234.1426 -43.38,0 -69.968,40.0908 -69.968,40.0908 0,43.5368 -105.008,101.1106 -113.798,134.9619 -3.74,14.4044 -5.397,31.776 -4.67,55.8628 -0.689,6.6805 10.295,1.6874 14.746,3.2271 l 103.722,-51.4416 c 0,-35.8508 41.853,-50.9861 69.968,-50.9861 36.7,0 70.529,33.8403 69.294,75.2226 z"
       sodipodi:nodetypes="cccscsccccc" />
    <path
       id="rect236"
       style="opacity:1;stroke-width:8.94607"
       transform="scale(-1)"
       d="m 12965.136,-799.29132 h 134.468 v 365.85742 h -134.468 z" />
    <path
       id="path237"
       style="opacity:1;stroke-width:11.3785"
       d="m -13238.866,801.14873 h -134.468 v -601.8574 h 134.468 z"
       sodipodi:nodetypes="ccccc" />
    <path
       id="path238"
       style="opacity:1;fill:#000000;fill-opacity:1;stroke:none;stroke-width:11.0875"
       d="m -13099.604,799.29132 c -3.484,38.39285 -35.891,70.14258 -75.222,70.14258 h -4.476 v 131.668 c 110.42,-1.0062 214.167,-85.58577 214.167,-201.81058 z"
       sodipodi:nodetypes="cscccc" />
    <path
       id="rect238"
       style="opacity:1;stroke-width:11.3386"
       d="m -13373.334,869.4339 h 194.032 v 131.668 h -194.032 z" />
    <path
       id="path239"
       style="opacity:1;fill:#000000;fill-opacity:1;stroke:none;stroke-width:11.0875"
       d="m -12659.613,201.14874 c -119.719,0 -216.099,100.79613 -216.099,226 v 148 c 0,125.20387 96.38,226 216.099,226 119.72,0 216.1,-100.79613 216.1,-226 v -148 c 0,-125.20387 -96.38,-226 -216.1,-226 z m -6.408,131.71484 h 12.816 c 41.674,0 75.223,33.54898 75.223,75.22266 v 186.125 c 0,41.67368 -33.549,75.22266 -75.223,75.22266 h -12.816 c -41.674,0 -75.223,-33.54898 -75.223,-75.22266 v -186.125 c 0,-41.67368 33.549,-75.22266 75.223,-75.22266 z" />
    <path
       id="path240"
       style="opacity:1;fill:#000000;fill-opacity:1;stroke:none;stroke-width:11.0875"
       d="m -12666.021,2.4729578 c -103.291,0 -189.148,75.0564352 -210.783,176.0585922 h 135.787 c 11.749,-26.1712 37.944,-44.34375 68.588,-44.34375 h 12.816 c 41.674,0 75.223,-1.45082 75.223,41.22266 0,0 5.581,25.73828 -75.223,25.73828 l 147.025,60.08834 c 22.177,0.0538 62.667,-49.26602 62.667,-90.45404 0,-139.970899 -96.381,-168.3100823 -216.1,-168.3100822 z"
       sodipodi:nodetypes="sccsscccss" />
    <path
       id="rect240"
       style="opacity:1;stroke-width:11.3386"
       d="m -12302.328,669.4339 h 131.715 v 131.71484 h -131.715 z" />
    <path
       id="rect241"
       style="opacity:1;stroke-width:11.3386"
       d="m -12051.471,669.4339 h 131.715 v 131.71484 h -131.715 z" />
    <path
       id="rect242"
       style="opacity:1;stroke-width:11.3386"
       d="m -12051.47,801.14874 h 131.715 l -131.715,131.71484 z"
       sodipodi:nodetypes="cccc" />
    <path
       id="rect241-6"
       style="stroke-width:16.81"
       d="m -754,470.5 h 131.71484 V 800 H -754 Z"
       sodipodi:nodetypes="ccccc" />
    <path
       id="rect243"
       style="opacity:1;stroke-width:15.8926"
       d="m -11844.885,2.4722991 h 131.715 V 261.23777 h -131.715 z" />
    <path
       id="rect244"
       style="opacity:1;stroke-width:15.8926"
       d="m -11659.885,2.4722991 h 131.715 V 261.23777 h -131.715 z" />
    <path
       id="path244"
       style="opacity:1;fill:#000000;fill-opacity:1;stroke:none;stroke-width:8.30782"
       d="m -21488.442,874.79946 c 20.597,68.7411 81.799,126.34924 154.496,126.34924 72.699,0 133.9,-57.60815 154.497,-126.34924 h -106.91 c 0,0 -17.618,39.65586 -47.587,39.65586 -29.968,0 -47.584,-39.65586 -47.584,-39.65586 z"
       sodipodi:nodetypes="cscczcc" />
    <path
       id="path245"
       style="opacity:1;fill:#000000;fill-opacity:1;stroke:none;stroke-width:11.3386"
       d="m -22029.587,198.08624 v 600 h 223 v 0 c 104.874,-15.68315 185,-111.84972 185,-226 v -148 c 0,-114.15028 -80.126,-210.31685 -185,-226 v 0 z m 131.714,135.91602 h 91.286 c 29.454,10.18414 50.531,38.01845 50.531,71.02148 v 186.125 c 0,33.00303 -21.077,60.83734 -50.531,71.02148 h -91.286 z"
       sodipodi:nodetypes="ccccsscccccssccc" />
    <path
       id="path246"
       style="opacity:1;fill:#000000;fill-opacity:1;stroke:none;stroke-width:10.6251"
       d="m -22505.229,201.14874 v 600 h 131.715 18.285 l 110.285,-278.31445 v 278.31445 h 131.715 v -600 h -150 l -110.285,278.31445 V 201.14874 Z"
       sodipodi:nodetypes="cccccccccccc" />
    <path
       id="path247"
       style="opacity:1;fill:#000000;fill-opacity:1;stroke:none;stroke-width:8.30782"
       d="m -22463.726,874.79946 c 20.598,68.7411 81.8,126.34924 154.497,126.34924 72.699,0 133.9,-57.60815 154.497,-126.34924 h -106.91 c 0,0 -17.618,39.65586 -47.587,39.65586 -29.968,0 -47.584,-39.65586 -47.584,-39.65586 z"
       sodipodi:nodetypes="cscczcc" />
    <path
       id="path248"
       style="opacity:1;fill:#000000;fill-opacity:1;stroke:none;stroke-width:11.0875"
       d="m -22829.329,201.14874 c -119.719,0 -216.099,100.79626 -216.099,226 v 148 c 0,125.20374 96.38,226 216.099,226 114.569,0 207.699,-92.32832 215.506,-210 h -133.875 v 3.0625 c 0,41.67364 -33.549,75.22266 -75.222,75.22266 h -12.817 c -41.673,0 -75.222,-33.54902 -75.222,-75.22266 v -186.125 c 0,-41.67364 33.549,-75.22266 75.222,-75.22266 h 12.817 c 41.673,0 75.222,33.54902 75.222,75.22266 v 146.8501 h 134.469 v -127.7876 c 0,-125.20374 -96.38,-226 -216.1,-226 z"
       sodipodi:nodetypes="ssssccssssssssccss" />
    <path
       id="path249"
       style="opacity:1;stroke-width:7.93586"
       d="m -22621.714,447.36114 v 107.5752 h -365.949 v -107.5752 z"
       sodipodi:nodetypes="ccccc" />
    <path
       id="path250"
       style="opacity:1;fill:#000000;fill-opacity:1;stroke:none;stroke-width:8.30782"
       d="m -22983.826,874.79946 c 20.598,68.7411 81.8,126.34924 154.497,126.34924 72.699,0 133.9,-57.60815 154.497,-126.34924 h -106.91 c 0,0 -17.618,39.65586 -47.587,39.65586 -29.968,0 -47.584,-39.65586 -47.584,-39.65586 z"
       sodipodi:nodetypes="cscczcc" />
    <path
       id="rect250"
       style="opacity:1;stroke-width:14.8763"
       d="m -11472.17,435.31476 h 334 v 131.66795 h -334 z" />
    <path
       id="rect250-9"
       style="stroke-width:16.8007"
       d="m -4109.6914,335.97672 h 426 v 131.66795 h -426 z" />
    <path
       id="rect252"
       style="opacity:1;stroke-width:12.5665"
       transform="rotate(90)"
       d="m 272.92023,10795.051 h 238.33203 v 131.668 H 272.92023 Z" />
    <path
       id="rect255"
       style="opacity:1;stroke-width:11.4439"
       transform="scale(-1)"
       d="m 9688.5781,-601.14874 h 134.4688 V -2.47229 h -134.4688 z" />
    <path
       id="path255"
       style="opacity:1;stroke-width:11.3785"
       d="m -9922.3087,463.00614 h -134.4683 V 1.148739 h 134.4683 z"
       sodipodi:nodetypes="ccccc" />
    <path
       id="path256"
       style="opacity:1;fill:#000000;fill-opacity:1;stroke:none;stroke-width:11.0875"
       d="m -9823.0469,601.14874 c -3.4842,38.39285 -35.8912,70.14257 -75.222,70.14257 h -4.4765 v 131.66796 c 110.4198,-1.00619 201.9765,-89.60637 214.1673,-201.81053 z"
       sodipodi:nodetypes="cscccc" />
    <path
       id="rect256"
       style="opacity:1;stroke-width:9.16597"
       d="m -10029.543,671.29132 h 126.7976 v 131.66795 h -126.7976 z" />
    <path
       id="rect257"
       style="opacity:1;stroke-width:16.4661"
       d="m -9566.8796,2.6617395 h 364.9648 V 134.32969 h -364.9648 z"
       sodipodi:nodetypes="ccccc" />
    <path
       id="rect258"
       style="opacity:1;stroke-width:11.4439"
       d="m -9608.8796,599.33819 h 134.4687 c -10.0629,-201.24851 140.6621,-310.66212 272.3301,-463.19793 V 2.6617395 C -9405.8083,68.306274 -9608.8796,351.55533 -9608.8796,599.33819 Z"
       sodipodi:nodetypes="ccccc" />
    <path
       id="path258"
       style="opacity:1;fill:#000000;fill-opacity:1;stroke:none;stroke-width:11.0875"
       d="m -9474.4109,599.33819 c 3.4842,38.39285 35.8912,70.14257 75.222,70.14257 h 4.4765 v 131.66796 c -110.4198,-1.00619 -201.9764,-89.60637 -214.1672,-201.81053 z"
       sodipodi:nodetypes="cscccc" />
    <path
       id="path259"
       style="opacity:1;fill:#000000;fill-opacity:1;stroke:none;stroke-width:11.0875"
       d="m -9315.014,599.33819 c -3.4842,38.39285 -35.8911,70.14257 -75.2219,70.14257 h -4.4765 v 131.66796 c 110.4198,-1.00619 201.9764,-89.60637 214.1671,-201.81053 z"
       sodipodi:nodetypes="cscccc" />
    <path
       id="path260"
       style="opacity:1;stroke-width:14.6572"
       d="m -8814.0354,2.472299 h 134.4687 l -370,998.676401 h -134.4687 z"
       sodipodi:nodetypes="ccccc" />
    <path
       id="rect260"
       style="opacity:1;stroke-width:16.3592"
       d="m -8599.8683,669.48077 h 343.9079 v 131.66795 h -343.9079 z"
       sodipodi:nodetypes="ccccc" />
    <path
       id="rect261"
       style="opacity:1;stroke-width:16.3592"
       d="m -8599.8683,201.14874 h 343.9079 v 131.66795 h -343.9079 z"
       sodipodi:nodetypes="ccccc" />
    <path
       id="path261"
       style="stroke-width:12.1095"
       d="m -7820.3827,332.81669 h -190 l -152.5024,126.6641 h 189.9999 z"
       sodipodi:nodetypes="ccccc" />
    <path
       id="path262"
       style="opacity:1;stroke-width:16.3592"
       d="m -8164.2905,459.48079 h 343.9078 v 131.66795 h -343.9078 z"
       sodipodi:nodetypes="ccccc" />
    <path
       id="path263"
       style="opacity:1;stroke-width:16.3592"
       d="m -8164.2905,201.14874 h 343.9078 v 131.66795 h -343.9078 z"
       sodipodi:nodetypes="ccccc" />
    <path
       id="rect263"
       style="opacity:1;stroke-width:11.4439"
       transform="scale(-1)"
       d="m 7461.1157,-800.487 h 134.4688 v 598.67645 h -134.4688 z" />
    <path
       id="path264"
       style="opacity:1;fill:#000000;fill-opacity:1;stroke:none;stroke-width:11.0875"
       d="m -7595.5849,800.48697 c -3.4842,38.39285 -35.8912,70.14257 -75.222,70.14257 h -4.4765 v 131.66796 c 110.4198,-1.0062 201.9765,-89.60637 214.1673,-201.81053 z"
       sodipodi:nodetypes="cscccc" />
    <path
       id="path265"
       style="opacity:1;fill:#000000;fill-opacity:1;stroke:none;stroke-width:11.0875"
       d="m -7595.5849,201.81057 c -3.4842,-38.39285 -35.8912,-70.14257 -75.222,-70.14257 h -4.4765 V 0 c 110.4198,1.0062 201.9765,89.60641 214.1673,201.81057 z"
       sodipodi:nodetypes="cscccc" />
    <path
       id="rect265"
       style="opacity:1;stroke-width:11.4439"
       transform="scale(1,-1)"
       d="m -7362.353,-800.487 h 134.4687 v 598.67645 h -134.4687 z" />
    <path
       id="path266"
       style="opacity:1;fill:#000000;fill-opacity:1;stroke:none;stroke-width:11.0875"
       d="m -7227.8844,800.48697 c 3.4842,38.39285 35.8912,70.14257 75.222,70.14257 h 4.4765 v 131.66796 c -110.4198,-1.0062 -201.9765,-89.60637 -214.1673,-201.81053 z"
       sodipodi:nodetypes="cscccc" />
    <path
       id="path267"
       style="opacity:1;fill:#000000;fill-opacity:1;stroke:none;stroke-width:11.0875"
       d="m -7227.8844,201.81057 c 3.4842,-38.39285 35.8912,-70.14257 75.222,-70.14257 h 4.4765 V 0 c -110.4198,1.0062 -201.9765,89.60641 -214.1673,201.81057 z"
       sodipodi:nodetypes="cscccc" />
    <path
       id="path268"
       style="opacity:1;stroke-width:12.1095"
       d="m -6916.5478,201.14808 h 150 l 302,600.00066 h -150 z"
       sodipodi:nodetypes="ccccc" />
    <path
       id="path269"
       style="stroke-width:13.1337"
       d="m -5659.0491,2.472299 h 134.4687 V 804.3297 h -134.4687 z"
       sodipodi:nodetypes="ccccc" />
    <path
       id="path270"
       style="stroke-width:10.352"
       d="m -5865.687,92.981967 h 134.4687 V 591.14874 h -134.4687 z"
       sodipodi:nodetypes="ccccc" />
    <path
       id="path271"
       style="stroke-width:13.1337"
       d="m -4926.9125,2.472299 h 134.4687 V 804.3297 h -134.4687 z"
       sodipodi:nodetypes="ccccc" />
    <path
       id="path273"
       style="stroke-width:10.352"
       d="m -5128.2975,92.981967 h 134.4687 V 591.14874 h -134.4686 z"
       sodipodi:nodetypes="ccccc" />
    <path
       id="path274"
       style="stroke-width:10.352"
       d="m -5329.6824,92.981967 h 134.4687 V 591.14874 h -134.4687 z"
       sodipodi:nodetypes="ccccc" />
    <path
       id="rect274"
       style="opacity:1;stroke-width:14.8763"
       d="m -11027.885,435.31476 h 334 v 131.66795 h -334 z" />
    <path
       id="rect275"
       style="opacity:1;stroke-width:12.5665"
       transform="rotate(-90)"
       d="m -729.37726,-10506.719 h 238.33203 v 131.668 h -238.33203 z" />
    <path
       id="rect276"
       style="opacity:1;stroke-width:14.8763"
       transform="scale(-1)"
       d="m 10273.885,-566.98273 h 334 v 131.66796 h -334 z" />
    <path
       id="rect277"
       style="stroke-width:18.3122"
       d="m -3549.2773,334.82797 h 506.1012 v 131.66796 h -506.1012 z" />
    <path
       id="path280"
       style="stroke-width:13.1337"
       d="m -3363.461,2.472299 h 134.4687 V 804.3297 h -134.4687 z"
       sodipodi:nodetypes="ccccc" />
    <path
       id="rect280"
       style="stroke-width:20.5913"
       d="m -2908.7622,334.82797 h 639.9182 v 131.66796 h -639.9182 z" />
    <path
       id="path281"
       style="stroke-width:13.1337"
       d="m -2550.5934,2.472299 h 134.4687 V 804.3297 h -134.4687 z"
       sodipodi:nodetypes="ccccc" />
    <path
       id="path282"
       style="stroke-width:11.3221"
       d="m -2757.2313,92.981967 h 134.4687 V 688.89303 h -134.4687 z"
       sodipodi:nodetypes="ccccc" />
    <path
       id="rect282"
       style="stroke-width:21.3247"
       d="m -2139.1509,334.82797 h 686.3163 v 131.66796 h -686.3163 z" />
    <g
       id="g285"
       transform="translate(-2637.8347)">
      <path
         id="path283"
         style="stroke-width:13.1337"
         d="M 952.27116,2.472299 H 1086.7399 V 804.3297 H 952.27116 Z"
         sodipodi:nodetypes="ccccc" />
      <path
         id="path284"
         style="stroke-width:11.3221"
         d="m 769.75625,92.981967 h 134.4687 V 688.89303 h -134.4687 z"
         sodipodi:nodetypes="ccccc" />
      <path
         id="path285"
         style="stroke-width:11.3221"
         d="m 587.24134,92.981967 h 134.4687 V 688.89303 h -134.4687 z"
         sodipodi:nodetypes="ccccc" />
    </g>
    <path
       id="path286"
       style="stroke-width:12.1095"
       d="m -877.35882,2.472299 h -149.99998 l -302,798.676791 h 150 z"
       sodipodi:nodetypes="ccccc" />
    <path
       id="path287"
       style="stroke-width:13.5748"
       d="m -1298.359,117.3954 v 188.49602 l 390.00038,379.50533 V 496.90073 Z"
       sodipodi:nodetypes="ccccc" />
    <path
       id="rect287"
       style="stroke-width:14.4913"
       d="m -1344.2919,2.4722991 h 316.9331 V 134.14025 h -316.9331 z" />
    <path
       id="rect288"
       style="opacity:1;stroke-width:12.9753"
       d="M -380.46875,485 H -246 v 315 h -134.46875 z"
       sodipodi:nodetypes="ccccc" />
  </g>
</svg>
