<?xml version="1.0" encoding="UTF-8" standalone="no"?>
<!-- Created with Inkscape (http://www.inkscape.org/) -->

<svg
   width="450"
   height="1000"
   viewBox="0 0 119.06249 264.58333"
   version="1.1"
   id="svg1"
   sodipodi:docname="i.svg"
   inkscape:version="1.4.2 (f4327f4, 2025-05-13)"
   xmlns:inkscape="http://www.inkscape.org/namespaces/inkscape"
   xmlns:sodipodi="http://sodipodi.sourceforge.net/DTD/sodipodi-0.dtd"
   xmlns="http://www.w3.org/2000/svg"
   xmlns:svg="http://www.w3.org/2000/svg">
  <sodipodi:namedview
     id="namedview1"
     pagecolor="#ffffff"
     bordercolor="#000000"
     borderopacity="0.25"
     inkscape:showpageshadow="2"
     inkscape:pageopacity="0.0"
     inkscape:pagecheckerboard="0"
     inkscape:deskcolor="#d1d1d1"
     inkscape:document-units="mm"
     inkscape:zoom="0.55748644"
     inkscape:cx="51.12232"
     inkscape:cy="556.96422"
     inkscape:window-width="1920"
     inkscape:window-height="1129"
     inkscape:window-x="-8"
     inkscape:window-y="-8"
     inkscape:window-maximized="1"
     inkscape:current-layer="layer1"
     showguides="true">
    <sodipodi:guide
       position="56.002856,198.65104"
       orientation="0,-1"
       id="guide1"
       inkscape:locked="false" />
    <sodipodi:guide
       position="58.210655,66.145831"
       orientation="0,-1"
       id="guide2"
       inkscape:locked="false" />
  </sodipodi:namedview>
  <defs
     id="defs1" />
  <g
     inkscape:label="Layer 1"
     inkscape:groupmode="layer"
     id="layer1">
    <path
       id="path203"
       style="stroke-width:0.266957"
       d="m 16.007291,71.699327 23.8125,-5.55349 V 198.4375 h -23.8125 z"
       sodipodi:nodetypes="ccccc" />
    <path
       style="fill:#000000;stroke-width:0.223614"
       d="m 16.007291,71.699327 -11.9062485,2.89988 v 3.43958 c 11.2863305,0 11.9062485,4.33961 11.9062485,13.23971 z"
       id="path204"
       sodipodi:nodetypes="ccccc" />
    <path
       id="path205"
       style="fill:#000000;stroke-width:0.240853"
       d="m 67.63668,66.145837 c -12.303389,0 -21.817038,8.35344 -27.816889,24.60625 v 11.112503 c 0,0 9.197393,-21.723743 18.840715,-21.723743 7.352215,0 11.674845,2.80476 12.909285,14.91433 V 172.24509 H 95.382287 V 90.752087 c 0,-11.50936 -7.223254,-24.60625 -27.745607,-24.60625 z"
       sodipodi:nodetypes="sccscccss" />
    <path
       id="path2"
       style="fill:#000000;stroke-width:0.240853"
       d="m 91.528555,198.4375 c 15.967765,0 21.239355,-16.41975 23.432905,-24.60625 l -2.64583,-3.175 c -4.65966,12.41473 -11.28046,13.55934 -14.479273,10.76001 -2.7731,-2.42678 -2.45407,-7.77008 -2.45407,-11.8881 V 92.338247 H 71.569791 v 81.493003 c 0,11.50936 6.536187,24.60625 19.958764,24.60625 z"
       sodipodi:nodetypes="sccscccss" />
  </g>
</svg>
