<?xml version="1.0" encoding="UTF-8" standalone="no"?>
<!-- Created with Inkscape (http://www.inkscape.org/) -->

<svg
   width="420"
   height="1000"
   viewBox="0 0 111.125 264.58333"
   version="1.1"
   id="svg1"
   sodipodi:docname="y.svg"
   inkscape:version="1.4.2 (f4327f4, 2025-05-13)"
   xmlns:inkscape="http://www.inkscape.org/namespaces/inkscape"
   xmlns:sodipodi="http://sodipodi.sourceforge.net/DTD/sodipodi-0.dtd"
   xmlns="http://www.w3.org/2000/svg"
   xmlns:svg="http://www.w3.org/2000/svg">
  <sodipodi:namedview
     id="namedview1"
     pagecolor="#ffffff"
     bordercolor="#000000"
     borderopacity="0.25"
     inkscape:showpageshadow="2"
     inkscape:pageopacity="0.0"
     inkscape:pagecheckerboard="0"
     inkscape:deskcolor="#d1d1d1"
     inkscape:document-units="mm"
     inkscape:zoom="0.55748644"
     inkscape:cx="13.453242"
     inkscape:cy="467.27594"
     inkscape:window-width="1920"
     inkscape:window-height="1129"
     inkscape:window-x="-8"
     inkscape:window-y="-8"
     inkscape:window-maximized="1"
     inkscape:current-layer="layer1"
     showguides="true">
    <sodipodi:guide
       position="56.002857,198.65104"
       orientation="0,-1"
       id="guide1"
       inkscape:locked="false" />
    <sodipodi:guide
       position="58.210656,66.145832"
       orientation="0,-1"
       id="guide2"
       inkscape:locked="false" />
  </sodipodi:namedview>
  <defs
     id="defs1" />
  <g
     inkscape:label="Layer 1"
     inkscape:groupmode="layer"
     id="layer1">
    <path
       id="path41-2"
       style="fill:#000000;stroke-width:0.240853"
       d="m 46.319097,198.4375 c 12.303363,0 21.817012,-8.35345 27.816853,-24.60625 v -11.1125 c 0,0 -9.197384,21.72374 -18.840705,21.72374 -7.352189,0 -11.674819,-2.80476 -12.909259,-14.91434 V 92.338252 h -23.8125 v 81.492998 c 0,11.50935 7.223257,24.60625 27.745611,24.60625 z"
       sodipodi:nodetypes="sccscccss" />
    <path
       id="path197-2"
       style="stroke-width:0.266957"
       d="m 18.573486,71.69933 23.8125,-5.553495 v 26.192417 h -23.8125 z"
       sodipodi:nodetypes="ccccc" />
    <path
       style="fill:#000000;stroke-width:0.223614"
       d="M 18.573486,71.69933 6.6672352,74.599206 v 3.439583 c 11.2863328,0 11.9062508,4.339606 11.9062508,13.239703 z"
       id="path198-1"
       sodipodi:nodetypes="ccccc" />
    <path
       id="path244"
       style="fill:#000000;stroke-width:0.240853"
       d="M 74.13595,92.338252 V 205.2469 c 0,14.19785 -0.6731,52.21201 -18.929087,52.46991 -5.147997,0.90291 -8.734689,-4.37565 -9.72132,-8.46385 -4.433094,-10.06216 -11.877411,-9.68238 -16.941271,-7.9068 -12.464785,4.37068 0.01588,23.23717 23.954581,23.23717 45.449597,0 45.449597,-43.52399 45.449597,-55.03333 V 92.338252 Z"
       sodipodi:nodetypes="csccssscc" />
    <path
       id="path249"
       style="stroke-width:0.266957"
       d="m 74.13595,71.69933 23.8125,-5.553496 v 26.192418 h -23.8125 z"
       sodipodi:nodetypes="ccccc" />
    <path
       style="fill:#000000;stroke-width:0.223614"
       d="m 74.13595,71.69933 -11.906251,2.899876 v 3.439583 c 11.286331,0 11.906251,4.339606 11.906251,13.239703 z"
       id="path250"
       sodipodi:nodetypes="ccccc" />
  </g>
</svg>
