<?xml version="1.0" encoding="UTF-8" standalone="no"?>
<!-- Created with Inkscape (http://www.inkscape.org/) -->

<svg
   width="350"
   height="1000"
   viewBox="0 0 92.604164 264.58333"
   version="1.1"
   id="svg1"
   sodipodi:docname="l.svg"
   inkscape:version="1.4.2 (f4327f4, 2025-05-13)"
   xmlns:inkscape="http://www.inkscape.org/namespaces/inkscape"
   xmlns:sodipodi="http://sodipodi.sourceforge.net/DTD/sodipodi-0.dtd"
   xmlns="http://www.w3.org/2000/svg"
   xmlns:svg="http://www.w3.org/2000/svg">
  <sodipodi:namedview
     id="namedview1"
     pagecolor="#ffffff"
     bordercolor="#000000"
     borderopacity="0.25"
     inkscape:showpageshadow="2"
     inkscape:pageopacity="0.0"
     inkscape:pagecheckerboard="0"
     inkscape:deskcolor="#d1d1d1"
     inkscape:document-units="mm"
     inkscape:zoom="0.55748644"
     inkscape:cx="-104.93529"
     inkscape:cy="603.60213"
     inkscape:window-width="1920"
     inkscape:window-height="1129"
     inkscape:window-x="-8"
     inkscape:window-y="-8"
     inkscape:window-maximized="1"
     inkscape:current-layer="layer1"
     showguides="true">
    <sodipodi:guide
       position="56.002857,198.65104"
       orientation="0,-1"
       id="guide1"
       inkscape:locked="false" />
    <sodipodi:guide
       position="58.210656,66.145832"
       orientation="0,-1"
       id="guide2"
       inkscape:locked="false" />
  </sodipodi:namedview>
  <defs
     id="defs1" />
  <g
     inkscape:label="Layer 1"
     inkscape:groupmode="layer"
     id="layer1">
    <path
       id="path240"
       style="fill:#000000;stroke-width:0.230471"
       d="M 47.993301,65.61949 C 28.266655,65.64145 13.584582,79.068218 9.8354368,95.31948 l 3.5873532,2.07171 c 4.558691,-12.470182 16.635915,-23.132822 29.2463,-22.879737 7.900988,0 19.508364,-0.228616 19.508364,21.799707 0,18.98879 -12.043145,23.38922 -23.488491,23.28333 0.175154,2.46461 0.08017,4.92378 0,7.38869 9.904413,-0.0997 23.488491,13.01401 23.488491,32.27917 0,16.0752 -11.607376,22.32887 -19.508364,22.32887 -14.98256,0.30069 -24.406595,-10.84076 -30.578001,-22.71799 l -5.3273062,0.37414 c 5.1080462,19.57267 19.2907972,40.33258 41.2295182,39.70248 21.620426,0 39.147485,-13.81488 39.147485,-42.8625 0,-16.58828 -10.873343,-26.64317 -24.109125,-31.88539 13.236046,-3.53515 24.109125,-11.30249 24.109125,-27.8908 0,-22.125343 -17.527059,-30.69167 -39.147485,-30.69167 z" />
  </g>
</svg>
