<?xml version="1.0" encoding="UTF-8" standalone="no"?>
<!-- Created with Inkscape (http://www.inkscape.org/) -->

<svg
   width="450"
   height="1000"
   viewBox="0 0 119.0625 264.58333"
   version="1.1"
   id="svg1"
   sodipodi:docname="m.svg"
   inkscape:version="1.4.2 (f4327f4, 2025-05-13)"
   xmlns:inkscape="http://www.inkscape.org/namespaces/inkscape"
   xmlns:sodipodi="http://sodipodi.sourceforge.net/DTD/sodipodi-0.dtd"
   xmlns="http://www.w3.org/2000/svg"
   xmlns:svg="http://www.w3.org/2000/svg">
  <sodipodi:namedview
     id="namedview1"
     pagecolor="#ffffff"
     bordercolor="#000000"
     borderopacity="0.25"
     inkscape:showpageshadow="2"
     inkscape:pageopacity="0.0"
     inkscape:pagecheckerboard="0"
     inkscape:deskcolor="#d1d1d1"
     inkscape:document-units="mm"
     inkscape:zoom="0.27874322"
     inkscape:cx="722.88754"
     inkscape:cy="633.19926"
     inkscape:window-width="1920"
     inkscape:window-height="1129"
     inkscape:window-x="-8"
     inkscape:window-y="-8"
     inkscape:window-maximized="1"
     inkscape:current-layer="layer1"
     showguides="true">
    <sodipodi:guide
       position="56.002857,198.65104"
       orientation="0,-1"
       id="guide1"
       inkscape:locked="false" />
    <sodipodi:guide
       position="58.210656,66.145832"
       orientation="0,-1"
       id="guide2"
       inkscape:locked="false" />
  </sodipodi:namedview>
  <defs
     id="defs1" />
  <g
     inkscape:label="Layer 1"
     inkscape:groupmode="layer"
     id="layer1">
    <path
       id="path264"
       style="stroke-width:0.266957"
       d="m 66.599495,0.46009386 c -45.573661,0 -67.7946097,111.79472614 -28.788942,111.79472614 l 2.42828,-5.47563 0.14624,-0.3297 c -15.63149,0 10.632041,-101.7597761 25.76639,-97.7459761 5.91844,1.5696401 4.94584,24.5453801 -10.52907,64.5040801 L 16.553455,179.2621 l -1.298112,3.72639 c -0.0297,0.0852 -0.0796,0.26893 -0.110588,0.35915 l -0.266131,0.72347 0.0393,0.0114 c -3.816178,11.43344 -14.96911873,54.16813 23.571182,73.81978 32.355458,16.49796 55.242548,-1.22993 67.533334,-36.52542 9.34406,-26.83337 -7.372826,-90.62363 -37.897424,-106.81622 l 10.847918,-29.446776 1.2976,-3.72639 c 0.0441,-0.12674 0.0813,-0.26882 0.12505,-0.39635 l 0.25218,-0.68678 -0.0331,-0.009 C 90.597024,50.522754 91.575854,0.46009386 66.599497,0.46009386 Z M 65.261595,122.33328 c 20.150599,15.36257 26.081229,66.28831 18.362189,88.45506 -9.748711,27.99548 -27.15755,41.84842 -38.33926,36.30683 -20.78669,-10.30173 -5.381069,-55.92682 -5.381069,-55.92682 z" />
  </g>
</svg>
