<?xml version="1.0" encoding="UTF-8" standalone="no"?>
<!-- Created with Inkscape (http://www.inkscape.org/) -->

<svg
   width="600"
   height="1000"
   viewBox="0 0 158.75 264.58333"
   version="1.1"
   id="svg1"
   sodipodi:docname="n.svg"
   inkscape:version="1.4.2 (f4327f4, 2025-05-13)"
   xmlns:inkscape="http://www.inkscape.org/namespaces/inkscape"
   xmlns:sodipodi="http://sodipodi.sourceforge.net/DTD/sodipodi-0.dtd"
   xmlns="http://www.w3.org/2000/svg"
   xmlns:svg="http://www.w3.org/2000/svg">
  <sodipodi:namedview
     id="namedview1"
     pagecolor="#ffffff"
     bordercolor="#000000"
     borderopacity="0.25"
     inkscape:showpageshadow="2"
     inkscape:pageopacity="0.0"
     inkscape:pagecheckerboard="0"
     inkscape:deskcolor="#d1d1d1"
     inkscape:document-units="mm"
     inkscape:zoom="0.78840488"
     inkscape:cx="298.70439"
     inkscape:cy="609.45843"
     inkscape:window-width="1920"
     inkscape:window-height="1129"
     inkscape:window-x="-8"
     inkscape:window-y="-8"
     inkscape:window-maximized="1"
     inkscape:current-layer="layer1"
     showguides="true">
    <sodipodi:guide
       position="56.002858,198.65104"
       orientation="0,-1"
       id="guide1"
       inkscape:locked="false" />
    <sodipodi:guide
       position="58.210657,66.145833"
       orientation="0,-1"
       id="guide2"
       inkscape:locked="false" />
  </sodipodi:namedview>
  <defs
     id="defs1" />
  <g
     inkscape:label="Layer 1"
     inkscape:groupmode="layer"
     id="layer1">
    <path
       id="path265"
       style="fill:#000000;stroke-width:0.240853"
       d="m 49.188538,198.43748 c 12.303363,0 21.817013,-8.35345 27.816863,-24.60625 v -11.1125 c 0,0 -9.197393,21.72374 -18.840714,21.72374 -7.352189,0 -11.674819,-2.80476 -12.909259,-14.91434 v -77.1899 h -23.8125 v 81.493 c 0,11.50935 7.223257,24.60625 27.74561,24.60625 z"
       sodipodi:nodetypes="sccscccss" />
    <path
       id="path266"
       style="stroke-width:0.266957"
       d="m 21.442928,71.699308 23.8125,-5.553495 V 92.33823 h -23.8125 z"
       sodipodi:nodetypes="ccccc" />
    <path
       style="fill:#000000;stroke-width:0.223614"
       d="M 21.442928,71.699308 9.5366775,74.599184 v 3.439586 c 11.2863315,0 11.9062505,4.3396 11.9062505,13.2397 z"
       id="path267"
       sodipodi:nodetypes="ccccc" />
    <path
       id="path268"
       style="fill:#000000;stroke-width:0.232071"
       d="m 100.44605,198.43748 c -13.837547,0 -47.601076,-10.88097 -19.070949,-60.29658 l 2.802442,3.14451 C 59.738957,186.06261 114.231,203.534 114.231,141.08439 65.788126,130.83308 67.333531,95.81377 67.333531,95.81377 c 0,-9.33496 9.370192,-29.667957 34.480229,-29.667957 21.92176,0 37.89781,29.614607 37.89781,66.145837 0,2.51433 -0.0916,3.9334 -0.25556,6.3748 7.38891,0.18328 12.40054,-0.28939 12.40054,-0.28939 l 0.24411,4.44159 c -4.33391,-0.009 -8.66815,0.0406 -13.00129,-0.0661 0,33.48163 -20.07129,55.68497 -38.65332,55.68497 z m 13.89224,-61.95901 c 0.023,-1.38959 0.0624,-2.73327 0.0624,-4.18683 0,-40.12758 -8.99303,-55.56249 -17.957427,-55.56249 -20.607572,0 -15.853592,55.56249 17.894987,59.74932 z"
       sodipodi:nodetypes="sccccssccccscssc" />
  </g>
</svg>
