<?xml version="1.0" encoding="UTF-8" standalone="no"?>
<!-- Created with Inkscape (http://www.inkscape.org/) -->

<svg
   width="400"
   height="1000"
   viewBox="0 0 105.83332 264.58333"
   version="1.1"
   id="svg1"
   sodipodi:docname="o.svg"
   inkscape:version="1.4.2 (f4327f4, 2025-05-13)"
   xmlns:inkscape="http://www.inkscape.org/namespaces/inkscape"
   xmlns:sodipodi="http://sodipodi.sourceforge.net/DTD/sodipodi-0.dtd"
   xmlns="http://www.w3.org/2000/svg"
   xmlns:svg="http://www.w3.org/2000/svg">
  <sodipodi:namedview
     id="namedview1"
     pagecolor="#ffffff"
     bordercolor="#000000"
     borderopacity="0.25"
     inkscape:showpageshadow="2"
     inkscape:pageopacity="0.0"
     inkscape:pagecheckerboard="0"
     inkscape:deskcolor="#d1d1d1"
     inkscape:document-units="mm"
     inkscape:zoom="0.55748644"
     inkscape:cx="51.12232"
     inkscape:cy="556.96422"
     inkscape:window-width="1920"
     inkscape:window-height="1129"
     inkscape:window-x="-8"
     inkscape:window-y="-8"
     inkscape:window-maximized="1"
     inkscape:current-layer="layer1"
     showguides="true">
    <sodipodi:guide
       position="56.002855,198.65104"
       orientation="0,-1"
       id="guide1"
       inkscape:locked="false" />
    <sodipodi:guide
       position="58.210654,66.14583"
       orientation="0,-1"
       id="guide2"
       inkscape:locked="false" />
  </sodipodi:namedview>
  <defs
     id="defs1" />
  <g
     inkscape:label="Layer 1"
     inkscape:groupmode="layer"
     id="layer1">
    <path
       id="path207"
       style="fill:#000000;stroke-width:0.241606"
       d="m 43.943059,66.145834 c -17.555554,0 -29.968852,9.362511 -34.8325017,25.106994 L 12.103656,94.7229 c 0,0 8.094028,-20.011898 25.988592,-19.685103 9.955266,0 19.857297,12.946075 21.255038,48.461133 -52.5055045,10.2513 -50.8304802,45.27062 -50.8304802,45.27062 0,9.33495 10.1560042,29.66795 37.3718672,29.66795 23.760218,0 41.076059,-29.6146 41.076059,-66.14583 0,-2.51433 -0.09933,-3.9334 -0.276992,-6.3748 8.008593,-0.18329 13.44051,0.28939 13.44051,0.28939 l 0.26459,-4.44159 c -4.697361,0.009 -9.395091,-0.0406 -14.09163,0.0661 C 82.75402,90.794308 65.146159,66.145834 43.943059,66.145834 Z M 59.46357,128.10485 c 0.02487,1.38958 0.06768,2.73326 0.06768,4.18682 0,40.12759 -9.747223,55.5625 -19.463411,55.5625 -22.335807,0 -17.183153,-55.5625 19.395731,-59.74932 z"
       sodipodi:nodetypes="scccccssccccscssc" />
  </g>
</svg>
