<?xml version="1.0" encoding="UTF-8" standalone="no"?>
<!-- Created with Inkscape (http://www.inkscape.org/) -->

<svg
   width="450"
   height="1000"
   viewBox="0 0 119.0625 264.58333"
   version="1.1"
   id="svg1"
   sodipodi:docname="p.svg"
   inkscape:version="1.4.2 (f4327f4, 2025-05-13)"
   xmlns:inkscape="http://www.inkscape.org/namespaces/inkscape"
   xmlns:sodipodi="http://sodipodi.sourceforge.net/DTD/sodipodi-0.dtd"
   xmlns="http://www.w3.org/2000/svg"
   xmlns:svg="http://www.w3.org/2000/svg">
  <sodipodi:namedview
     id="namedview1"
     pagecolor="#ffffff"
     bordercolor="#000000"
     borderopacity="0.25"
     inkscape:showpageshadow="2"
     inkscape:pageopacity="0.0"
     inkscape:pagecheckerboard="0"
     inkscape:deskcolor="#d1d1d1"
     inkscape:document-units="mm"
     inkscape:zoom="0.27874322"
     inkscape:cx="378.48454"
     inkscape:cy="633.19926"
     inkscape:window-width="1920"
     inkscape:window-height="1129"
     inkscape:window-x="-8"
     inkscape:window-y="-8"
     inkscape:window-maximized="1"
     inkscape:current-layer="layer1"
     showguides="true">
    <sodipodi:guide
       position="56.002857,198.65104"
       orientation="0,-1"
       id="guide1"
       inkscape:locked="false" />
    <sodipodi:guide
       position="58.210656,66.145832"
       orientation="0,-1"
       id="guide2"
       inkscape:locked="false" />
  </sodipodi:namedview>
  <defs
     id="defs1" />
  <g
     inkscape:label="Layer 1"
     inkscape:groupmode="layer"
     id="layer1">
    <path
       id="path208"
       style="fill:#000000;stroke-width:0.224609"
       d="m 31.967018,66.145833 c -15.17229,0 -24.92542,11.688347 -25.94829,28.555362 l 3.20135,3.175 c 0,0 1.9341,-22.944508 17.69038,-22.838399 9.28344,0.06252 19.03709,15.019914 19.03709,57.253874 0,40.12758 -5.86811,58.47291 -16.38194,58.47291 -14.73848,0 -20.53466,-16.48465 -20.79924,-30.99087 h -2.35955 c 0.0513,32.49963 16.27023,38.66379 25.03103,38.66379 9.96493,0 19.00693,-6.98742 25.68266,-18.34152 6.48676,11.3541 15.2727,18.34152 24.95558,18.34152 14.59579,0 29.686562,-13.16748 29.686562,-38.66379 h -3.1171 c 0,13.00256 -9.920772,31.23117 -22.729382,31.23117 -9.39609,0 -17.29713,-18.58559 -17.29713,-58.71321 0,-41.870581 12.44689,-63.059227 21.50848,-56.67822 4.24582,2.989823 2.08684,9.481637 4.73487,15.442491 3.97764,8.953849 12.099372,9.201409 15.062652,6.914821 2.96331,-2.286584 4.18627,-6.405824 2.01634,-11.750831 -2.16995,-5.345009 -9.45105,-20.074098 -29.865292,-20.074098 -9.61459,0 -18.34486,6.889168 -24.8181,18.101738 -6.53452,-11.212547 -15.39632,-18.101738 -25.29097,-18.101738 z"
       sodipodi:nodetypes="sccsssccscsccssssszscs" />
  </g>
</svg>
