<?xml version="1.0" encoding="UTF-8" standalone="no"?>
<!-- Created with Inkscape (http://www.inkscape.org/) -->

<svg
   width="400"
   height="1000"
   viewBox="0 0 105.83333 264.58333"
   version="1.1"
   id="svg1"
   sodipodi:docname="x.svg"
   inkscape:version="1.4.2 (f4327f4, 2025-05-13)"
   xmlns:inkscape="http://www.inkscape.org/namespaces/inkscape"
   xmlns:sodipodi="http://sodipodi.sourceforge.net/DTD/sodipodi-0.dtd"
   xmlns="http://www.w3.org/2000/svg"
   xmlns:svg="http://www.w3.org/2000/svg">
  <sodipodi:namedview
     id="namedview1"
     pagecolor="#ffffff"
     bordercolor="#000000"
     borderopacity="0.25"
     inkscape:showpageshadow="2"
     inkscape:pageopacity="0.0"
     inkscape:pagecheckerboard="0"
     inkscape:deskcolor="#d1d1d1"
     inkscape:document-units="mm"
     inkscape:zoom="0.55748644"
     inkscape:cx="-104.93529"
     inkscape:cy="601.80836"
     inkscape:window-width="1920"
     inkscape:window-height="1129"
     inkscape:window-x="-8"
     inkscape:window-y="-8"
     inkscape:window-maximized="1"
     inkscape:current-layer="layer1"
     showguides="true">
    <sodipodi:guide
       position="56.002857,198.65104"
       orientation="0,-1"
       id="guide1"
       inkscape:locked="false" />
    <sodipodi:guide
       position="58.210656,66.145832"
       orientation="0,-1"
       id="guide2"
       inkscape:locked="false" />
  </sodipodi:namedview>
  <defs
     id="defs1" />
  <g
     inkscape:label="Layer 1"
     inkscape:groupmode="layer"
     id="layer1">
    <path
       id="path96"
       style="stroke-width:0.266957"
       d="m 17.065624,71.699331 23.8125,-5.553496 V 198.4375 h -23.8125 z"
       sodipodi:nodetypes="ccccc" />
    <path
       style="fill:#000000;stroke-width:0.223614"
       d="M 17.065624,71.699331 5.1593756,74.599206 v 3.439584 c 11.2863304,0 11.9062484,4.339606 11.9062484,13.239707 z"
       id="path97"
       sodipodi:nodetypes="ccccc" />
    <path
       id="path100"
       style="fill:#000000;stroke-width:0.240853"
       d="m 68.695092,66.145835 c -12.303389,0 -21.817012,8.353446 -27.816968,24.60625 v 11.112495 c 0,0 9.197445,-21.723734 18.840714,-21.723734 7.352241,0 11.675004,2.804758 12.909285,14.914335 V 198.4375 h 23.8125 V 90.752085 c 0,-11.509354 -7.223125,-24.60625 -27.745531,-24.60625 z"
       sodipodi:nodetypes="sccscccss" />
    <path
       id="path103"
       style="fill:#000000;stroke-width:0.240853"
       d="m 72.628123,101.86458 v 103.38233 c 0,14.19784 3.560233,52.212 -14.695752,52.4699 -5.147998,0.90291 -8.734689,-4.37565 -9.72132,-8.46384 -4.433094,-10.06216 -11.877411,-9.68239 -16.941271,-7.90681 -12.464785,4.37068 0.01588,23.23717 23.954581,23.23717 33.992872,0 41.216262,-43.52399 41.216262,-55.03333 V 101.86458 Z"
       sodipodi:nodetypes="csccssscc" />
    <path
       id="path170"
       style="stroke-width:0.266957"
       d="m 17.065624,71.699331 23.8125,-5.553496 V 198.4375 h -23.8125 z"
       sodipodi:nodetypes="ccccc" />
    <path
       style="fill:#000000;stroke-width:0.223614"
       d="M 17.065624,71.699331 5.1593756,74.599206 v 3.439584 c 11.2863304,0 11.9062484,4.339606 11.9062484,13.239707 z"
       id="path171"
       sodipodi:nodetypes="ccccc" />
  </g>
</svg>
